<svg width="512" height="512" viewBox="0 0 512 512" fill="none" xmlns="http://www.w3.org/2000/svg">
<path d="M285.5 22.8053L443.203 113.855C455.152 120.754 460.129 123.695 463.713 127.674C466.995 131.319 469.474 135.614 470.99 140.278C472.644 145.372 472.703 151.152 472.703 164.95V347.05C472.703 360.848 472.644 366.628 470.99 371.722C469.474 376.386 466.995 380.681 463.713 384.326C460.129 388.305 455.152 391.246 443.203 398.145L285.5 489.195C273.55 496.094 268.515 498.934 263.277 500.047C258.479 501.067 253.521 501.067 248.723 500.047C243.485 498.934 238.45 496.094 226.5 489.195L68.7975 398.145C56.8477 391.246 51.8709 388.305 48.2874 384.326C45.0054 380.681 42.5262 376.386 41.0105 371.722C39.3556 366.628 39.2975 360.848 39.2975 347.05V164.95C39.2975 151.152 39.3556 145.372 41.0105 140.278C42.5262 135.614 45.0054 131.319 48.2874 127.674C51.8709 123.695 56.8477 120.754 68.7975 113.855L226.5 22.8053C238.45 15.9061 243.485 13.0663 248.723 11.9529C253.521 10.9331 258.479 10.9331 263.277 11.9529C268.515 13.0663 273.55 15.9061 285.5 22.8053Z" fill="black" stroke="#1EB0A5" stroke-width="10" stroke-linejoin="round"/>
<path d="M376.443 247V258.008H424.545C415.891 279.004 396.83 293.408 376.443 298.197V316.035H344.758C351.314 332.552 362.886 346.163 376.393 358.017H390.171V368.127H236.329V358.018H251.157C266.703 346.171 278.239 332.579 284.499 316.035H250.057V300.243C239.372 296.458 228.686 289.687 218 280.393C228.719 270.913 239.225 265.65 250.057 263.113V247.001H376.442L376.443 247Z" fill="#675AFB"/>
<path d="M205.296 158.663L222.61 150.869L252.806 180.541L264.354 218.6L237.674 230.606L221.223 203.84L125.018 247.158L118.221 232.076L214.426 188.775L205.296 158.663Z" fill="#675AFB"/>
<path d="M249.15 105.475C259.022 132.401 305.087 103.209 319.704 127.932C330.771 146.65 309.691 164.175 319.704 183.466C324.614 192.927 332.863 207.139 347.087 207.5C366.81 208 351.168 168.412 371.451 163.243C401.325 155.631 398.125 231.946 426.296 219.505C442.017 212.562 462.875 187.626 457.232 163.243C453.158 145.639 433.895 149.416 426.296 128.582C420.618 113.015 406.982 90.7593 406.982 90.7593L356.224 61.1215C356.224 61.1215 308.256 31.3465 281.635 44.692C257.43 56.8265 239.895 80.2321 249.15 105.475Z" fill="url(#paint0_radial)"/>
<path d="M189.737 371.063C176.787 383.681 168.602 400.732 178.57 415.77C189.938 432.923 213.036 406.738 231.646 415.77C252.688 425.983 241.783 465.186 265.219 464.999C288.528 464.814 283.029 431.166 300.39 415.77C313.668 403.995 339.046 421.974 347.087 406.226C359.853 381.224 277.24 402.139 249.15 398.691C217.96 394.862 212.133 349.24 189.737 371.063Z" fill="url(#paint1_radial)"/>
<path d="M216.059 71.0993C210.976 85.3035 203.127 81.3397 185.676 95.2803C169.532 108.177 184.09 135.585 163.342 135.467C140.568 135.338 115.245 108.221 105.478 128.582C96.9864 146.285 134.39 158.356 124.259 175.193C116.115 188.728 97.8583 178.369 85.8605 188.72C70.1044 202.315 77.4654 220.31 67.4094 238.446C58.6901 254.171 40 275.512 40 275.512C40 275.512 40 163.243 44 140C46.6674 124.5 209.308 35 209.308 35C209.308 35 220.896 57.5849 216.059 71.0993Z" fill="url(#paint2_radial)"/>
<path d="M88.2203 287.675C64.5353 295.811 88.2673 360.731 111.062 371.063C129.475 379.408 118.179 339.615 131.872 324.848C144.638 311.081 187.03 322.959 189.737 313.294C192.444 303.629 179.969 282.654 163.342 278.773C146.8 274.911 133.564 290.401 124.259 297.722C114.953 305.043 101.078 283.258 88.2203 287.675Z" fill="url(#paint3_radial)"/>
<path d="M446.298 342.429C452.105 318.258 434.971 300.901 446.298 278.773C452.397 266.859 468.921 253.03 468.921 253.03L470 252.896L468.921 377L443.5 398.691C443.5 398.691 430.993 393.995 426.296 387.5C415.012 371.896 441.801 361.153 446.298 342.429Z" fill="url(#paint4_radial)"/>
<defs>
<radialGradient id="paint0_radial" cx="0" cy="0" r="1" gradientUnits="userSpaceOnUse" gradientTransform="translate(256.737 251.004) rotate(90.4566) scale(218.003 185.152)">
<stop stop-color="#675AFB"/>
<stop offset="1" stop-color="#1EB0A5"/>
</radialGradient>
<radialGradient id="paint1_radial" cx="0" cy="0" r="1" gradientUnits="userSpaceOnUse" gradientTransform="translate(256.737 251.004) rotate(90.4566) scale(218.003 185.152)">
<stop stop-color="#675AFB"/>
<stop offset="1" stop-color="#1EB0A5"/>
</radialGradient>
<radialGradient id="paint2_radial" cx="0" cy="0" r="1" gradientUnits="userSpaceOnUse" gradientTransform="translate(256.737 251.004) rotate(90.4566) scale(218.003 185.152)">
<stop stop-color="#675AFB"/>
<stop offset="1" stop-color="#1EB0A5"/>
</radialGradient>
<radialGradient id="paint3_radial" cx="0" cy="0" r="1" gradientUnits="userSpaceOnUse" gradientTransform="translate(256.737 251.004) rotate(90.4566) scale(218.003 185.152)">
<stop stop-color="#675AFB"/>
<stop offset="1" stop-color="#1EB0A5"/>
</radialGradient>
<radialGradient id="paint4_radial" cx="0" cy="0" r="1" gradientUnits="userSpaceOnUse" gradientTransform="translate(256.737 251.004) rotate(90.4566) scale(218.003 185.152)">
<stop stop-color="#675AFB"/>
<stop offset="1" stop-color="#1EB0A5"/>
</radialGradient>
</defs>
</svg>